<svg width="134" height="30" viewBox="0 0 134 30" fill="none" xmlns="http://www.w3.org/2000/svg">
<path d="M39.336 18.128C38.2373 18.128 37.2773 17.8933 36.456 17.424C35.6453 16.944 35.0213 16.2667 34.584 15.392C34.1467 14.5173 33.928 13.4827 33.928 12.288C33.928 11.104 34.1467 10.0747 34.584 9.2C35.0213 8.32533 35.6453 7.65333 36.456 7.184C37.2773 6.71467 38.2373 6.48 39.336 6.48C40.1147 6.48 40.8347 6.60267 41.496 6.848C42.168 7.08267 42.7333 7.42933 43.192 7.888L42.616 9.104C42.0827 8.66667 41.5547 8.352 41.032 8.16C40.52 7.95733 39.96 7.856 39.352 7.856C38.168 7.856 37.2507 8.24 36.6 9.008C35.96 9.776 35.64 10.8693 35.64 12.288C35.64 13.7173 35.96 14.8213 36.6 15.6C37.2507 16.368 38.168 16.752 39.352 16.752C39.96 16.752 40.52 16.656 41.032 16.464C41.5547 16.2613 42.0827 15.9413 42.616 15.504L43.192 16.72C42.7333 17.1787 42.168 17.5307 41.496 17.776C40.8347 18.0107 40.1147 18.128 39.336 18.128ZM52.3413 9.936V18H50.7413V16.624C50.5066 17.104 50.1546 17.472 49.6853 17.728C49.2266 17.984 48.6879 18.112 48.0693 18.112C47.3546 18.112 46.7253 17.9413 46.1813 17.6C45.6479 17.2587 45.2319 16.7787 44.9333 16.16C44.6346 15.5307 44.4853 14.8 44.4853 13.968C44.4853 13.136 44.6346 12.4 44.9333 11.76C45.2426 11.12 45.6693 10.624 46.2133 10.272C46.7573 9.92 47.3759 9.744 48.0693 9.744C48.6879 9.744 49.2266 9.87733 49.6853 10.144C50.1439 10.4 50.4959 10.768 50.7413 11.248V9.936H52.3413ZM48.4533 16.832C49.1786 16.832 49.7386 16.5813 50.1333 16.08C50.5386 15.568 50.7413 14.8533 50.7413 13.936C50.7413 13.008 50.5386 12.2933 50.1333 11.792C49.7386 11.2907 49.1733 11.04 48.4373 11.04C47.7119 11.04 47.1413 11.3013 46.7253 11.824C46.3199 12.336 46.1173 13.0507 46.1173 13.968C46.1173 14.8747 46.3199 15.5787 46.7253 16.08C47.1413 16.5813 47.7173 16.832 48.4533 16.832ZM58.7313 9.744C58.9766 9.744 59.2326 9.78133 59.4993 9.856L59.4673 11.328C59.1793 11.2213 58.8646 11.168 58.5233 11.168C57.7873 11.168 57.2326 11.392 56.8593 11.84C56.4966 12.2773 56.3153 12.832 56.3153 13.504V18H54.7153V12.208C54.7153 11.3653 54.6726 10.608 54.5872 9.936H56.0913L56.2353 11.392C56.4486 10.8587 56.7793 10.4533 57.2273 10.176C57.6753 9.888 58.1766 9.744 58.7313 9.744ZM67.4546 14H61.6946C61.748 15.888 62.6066 16.832 64.2706 16.832C65.1986 16.832 66.0466 16.528 66.8146 15.92L67.3106 17.072C66.948 17.392 66.484 17.648 65.9186 17.84C65.364 18.0213 64.804 18.112 64.2386 18.112C62.948 18.112 61.9346 17.744 61.1986 17.008C60.4626 16.2613 60.0946 15.2427 60.0946 13.952C60.0946 13.1307 60.2546 12.4 60.5746 11.76C60.9053 11.12 61.364 10.624 61.9506 10.272C62.5373 9.92 63.204 9.744 63.9506 9.744C65.0386 9.744 65.892 10.096 66.5106 10.8C67.14 11.504 67.4546 12.48 67.4546 13.728V14ZM63.9826 10.944C63.3746 10.944 62.8786 11.1253 62.4946 11.488C62.1106 11.8507 61.8653 12.368 61.7586 13.04H66.0306C65.9666 12.3573 65.7586 11.84 65.4066 11.488C65.0546 11.1253 64.58 10.944 63.9826 10.944ZM76.189 14H70.429C70.4823 15.888 71.341 16.832 73.005 16.832C73.933 16.832 74.781 16.528 75.549 15.92L76.045 17.072C75.6823 17.392 75.2183 17.648 74.653 17.84C74.0983 18.0213 73.5383 18.112 72.973 18.112C71.6823 18.112 70.669 17.744 69.933 17.008C69.197 16.2613 68.829 15.2427 68.829 13.952C68.829 13.1307 68.989 12.4 69.309 11.76C69.6397 11.12 70.0983 10.624 70.685 10.272C71.2717 9.92 71.9383 9.744 72.685 9.744C73.773 9.744 74.6263 10.096 75.245 10.8C75.8743 11.504 76.189 12.48 76.189 13.728V14ZM72.717 10.944C72.109 10.944 71.613 11.1253 71.229 11.488C70.845 11.8507 70.5997 12.368 70.493 13.04H74.765C74.701 12.3573 74.493 11.84 74.141 11.488C73.789 11.1253 73.3143 10.944 72.717 10.944ZM82.0594 9.744C82.3047 9.744 82.5607 9.78133 82.8274 9.856L82.7954 11.328C82.5074 11.2213 82.1927 11.168 81.8514 11.168C81.1154 11.168 80.5607 11.392 80.1874 11.84C79.8247 12.2773 79.6434 12.832 79.6434 13.504V18H78.0434V12.208C78.0434 11.3653 78.0007 10.608 77.9154 9.936H79.4194L79.5634 11.392C79.7767 10.8587 80.1074 10.4533 80.5554 10.176C81.0034 9.888 81.5047 9.744 82.0594 9.744ZM91.8286 18.112C91.018 18.112 90.3086 17.9413 89.7006 17.6C89.1033 17.2587 88.6446 16.7787 88.3246 16.16C88.0046 15.5307 87.8446 14.8 87.8446 13.968C87.8446 13.136 88.01 12.4 88.3406 11.76C88.682 11.12 89.1566 10.624 89.7646 10.272C90.3726 9.92 91.082 9.744 91.8926 9.744C92.458 9.744 93.002 9.84 93.5246 10.032C94.0473 10.2133 94.4686 10.464 94.7886 10.784L94.2926 11.952C93.5353 11.3547 92.7726 11.056 92.0046 11.056C91.226 11.056 90.618 11.312 90.1806 11.824C89.7433 12.3253 89.5246 13.0347 89.5246 13.952C89.5246 14.8693 89.7433 15.5787 90.1806 16.08C90.618 16.5707 91.226 16.816 92.0046 16.816C92.794 16.816 93.5566 16.5173 94.2926 15.92L94.7886 17.088C94.4473 17.408 94.01 17.6587 93.4766 17.84C92.954 18.0213 92.4046 18.112 91.8286 18.112ZM103.685 9.936V18H102.085V16.624C101.85 17.104 101.498 17.472 101.029 17.728C100.57 17.984 100.032 18.112 99.413 18.112C98.6983 18.112 98.069 17.9413 97.525 17.6C96.9917 17.2587 96.5757 16.7787 96.277 16.16C95.9783 15.5307 95.829 14.8 95.829 13.968C95.829 13.136 95.9783 12.4 96.277 11.76C96.5863 11.12 97.013 10.624 97.557 10.272C98.101 9.92 98.7197 9.744 99.413 9.744C100.032 9.744 100.57 9.87733 101.029 10.144C101.488 10.4 101.84 10.768 102.085 11.248V9.936H103.685ZM99.797 16.832C100.522 16.832 101.082 16.5813 101.477 16.08C101.882 15.568 102.085 14.8533 102.085 13.936C102.085 13.008 101.882 12.2933 101.477 11.792C101.082 11.2907 100.517 11.04 99.781 11.04C99.0557 11.04 98.485 11.3013 98.069 11.824C97.6637 12.336 97.461 13.0507 97.461 13.968C97.461 14.8747 97.6637 15.5787 98.069 16.08C98.485 16.5813 99.061 16.832 99.797 16.832ZM115.259 9.744C117.051 9.744 117.947 10.8213 117.947 12.976V18H116.331V13.056C116.331 12.3627 116.208 11.856 115.963 11.536C115.728 11.216 115.344 11.056 114.811 11.056C114.192 11.056 113.702 11.2693 113.339 11.696C112.987 12.1227 112.811 12.704 112.811 13.44V18H111.195V13.056C111.195 12.3627 111.072 11.856 110.827 11.536C110.592 11.216 110.208 11.056 109.675 11.056C109.056 11.056 108.566 11.2693 108.203 11.696C107.84 12.1227 107.659 12.704 107.659 13.44V18H106.059V12.208C106.059 11.3653 106.016 10.608 105.931 9.936H107.435L107.579 11.28C107.814 10.7893 108.15 10.4107 108.587 10.144C109.024 9.87733 109.536 9.744 110.123 9.744C111.371 9.744 112.187 10.2613 112.571 11.296C112.816 10.816 113.174 10.4373 113.643 10.16C114.123 9.88267 114.662 9.744 115.259 9.744ZM124.534 9.744C125.227 9.744 125.846 9.92 126.39 10.272C126.934 10.624 127.355 11.12 127.654 11.76C127.963 12.4 128.118 13.136 128.118 13.968C128.118 14.8 127.969 15.5307 127.67 16.16C127.371 16.7787 126.95 17.2587 126.406 17.6C125.862 17.9413 125.238 18.112 124.534 18.112C123.915 18.112 123.371 17.984 122.902 17.728C122.443 17.4613 122.097 17.0827 121.862 16.592V21.456H120.262V12.208C120.262 11.3653 120.219 10.608 120.134 9.936H121.638L121.798 11.424C122.011 10.8907 122.358 10.48 122.838 10.192C123.318 9.89333 123.883 9.744 124.534 9.744ZM124.166 16.832C124.891 16.832 125.457 16.5813 125.862 16.08C126.267 15.5787 126.47 14.8747 126.47 13.968C126.47 13.0507 126.267 12.336 125.862 11.824C125.457 11.3013 124.891 11.04 124.166 11.04C123.419 11.04 122.849 11.2907 122.454 11.792C122.059 12.2933 121.862 13.008 121.862 13.936C121.862 14.864 122.059 15.5787 122.454 16.08C122.859 16.5813 123.43 16.832 124.166 16.832Z" fill="#D2D2D6"/>
<path d="M40.352 26.824H37.824L37.32 28H35.816L38.48 22.304H39.664L42.336 28H40.856L40.352 26.824ZM39.864 25.696L39.088 23.896L38.312 25.696H39.864ZM43.0604 22.304H45.7724C46.4231 22.304 46.9271 22.4613 47.2844 22.776C47.6418 23.0853 47.8204 23.5067 47.8204 24.04C47.8204 24.568 47.6391 24.9893 47.2764 25.304C46.9138 25.6187 46.4124 25.776 45.7724 25.776H44.5644V28H43.0604V22.304ZM45.5724 24.656C46.1378 24.656 46.4204 24.456 46.4204 24.056C46.4204 23.8533 46.3511 23.7013 46.2124 23.6C46.0791 23.4933 45.8658 23.44 45.5724 23.44H44.5644V24.656H45.5724ZM48.937 22.304H51.649C52.2997 22.304 52.8037 22.4613 53.161 22.776C53.5183 23.0853 53.697 23.5067 53.697 24.04C53.697 24.568 53.5157 24.9893 53.153 25.304C52.7903 25.6187 52.289 25.776 51.649 25.776H50.441V28H48.937V22.304ZM51.449 24.656C52.0143 24.656 52.297 24.456 52.297 24.056C52.297 23.8533 52.2277 23.7013 52.089 23.6C51.9557 23.4933 51.7423 23.44 51.449 23.44H50.441V24.656H51.449ZM54.8136 22.304H56.3176V26.784H58.7256V28H54.8136V22.304ZM59.8464 22.304H61.3504V28H59.8464V22.304ZM65.5456 28.072C64.9536 28.072 64.4363 27.952 63.9936 27.712C63.5563 27.4667 63.2176 27.1227 62.9776 26.68C62.743 26.2373 62.6256 25.7253 62.6256 25.144C62.6256 24.568 62.743 24.0613 62.9776 23.624C63.2176 23.1813 63.5563 22.84 63.9936 22.6C64.4363 22.3547 64.9536 22.232 65.5456 22.232C65.919 22.232 66.279 22.288 66.6256 22.4C66.9776 22.512 67.2603 22.664 67.4736 22.856L67.0176 23.92C66.5536 23.584 66.0736 23.416 65.5776 23.416C65.119 23.416 64.767 23.5627 64.5216 23.856C64.2763 24.144 64.1536 24.5733 64.1536 25.144C64.1536 25.72 64.2763 26.1547 64.5216 26.448C64.767 26.7413 65.119 26.888 65.5776 26.888C66.0736 26.888 66.5536 26.72 67.0176 26.384L67.4736 27.448C67.2603 27.64 66.9776 27.792 66.6256 27.904C66.279 28.016 65.919 28.072 65.5456 28.072ZM72.4317 26.824H69.9037L69.3997 28H67.8957L70.5597 22.304H71.7437L74.4157 28H72.9357L72.4317 26.824ZM71.9437 25.696L71.1677 23.896L70.3917 25.696H71.9437ZM75.6779 23.52H73.9819V22.304H78.8939V23.52H77.1979V28H75.6779V23.52ZM79.8995 22.304H81.4035V28H79.8995V22.304ZM85.5427 28.072C84.9614 28.072 84.4547 27.9547 84.0227 27.72C83.5907 27.48 83.2574 27.1387 83.0227 26.696C82.7934 26.2533 82.6787 25.736 82.6787 25.144C82.6787 24.552 82.7961 24.0373 83.0307 23.6C83.2654 23.1627 83.5961 22.8267 84.0227 22.592C84.4547 22.352 84.9614 22.232 85.5427 22.232C86.1241 22.232 86.6281 22.352 87.0547 22.592C87.4867 22.8267 87.8174 23.1627 88.0467 23.6C88.2761 24.0373 88.3907 24.552 88.3907 25.144C88.3907 25.736 88.2761 26.2533 88.0467 26.696C87.8174 27.1387 87.4867 27.48 87.0547 27.72C86.6281 27.9547 86.1241 28.072 85.5427 28.072ZM85.5427 26.928C85.9694 26.928 86.3027 26.776 86.5427 26.472C86.7881 26.168 86.9107 25.7253 86.9107 25.144C86.9107 24.568 86.7881 24.1307 86.5427 23.832C86.3027 23.528 85.9694 23.376 85.5427 23.376C85.1161 23.376 84.7827 23.5253 84.5427 23.824C84.3027 24.1227 84.1827 24.5627 84.1827 25.144C84.1827 25.7307 84.3027 26.176 84.5427 26.48C84.7827 26.7787 85.1161 26.928 85.5427 26.928ZM94.7643 22.304V28H93.6523L91.0683 24.768V28H89.6683V22.304H90.7643L93.3483 25.52V22.304H94.7643ZM98.2573 28.072C97.8306 28.072 97.4093 28.016 96.9933 27.904C96.5773 27.792 96.2386 27.64 95.9773 27.448L96.4493 26.384C96.7266 26.56 97.0199 26.696 97.3293 26.792C97.6439 26.8827 97.9586 26.928 98.2733 26.928C98.5933 26.928 98.8386 26.8853 99.0093 26.8C99.1799 26.7093 99.2653 26.584 99.2653 26.424C99.2653 26.28 99.1879 26.1627 99.0333 26.072C98.8786 25.976 98.5879 25.8827 98.1613 25.792C97.6226 25.6853 97.2039 25.5547 96.9053 25.4C96.6066 25.24 96.3959 25.0533 96.2733 24.84C96.1559 24.6267 96.0973 24.368 96.0973 24.064C96.0973 23.7173 96.1959 23.4053 96.3933 23.128C96.5906 22.8453 96.8679 22.6267 97.2253 22.472C97.5826 22.312 97.9906 22.232 98.4493 22.232C98.8599 22.232 99.2573 22.2907 99.6413 22.408C100.031 22.52 100.335 22.6693 100.553 22.856L100.089 23.92C99.8386 23.744 99.5746 23.6107 99.2973 23.52C99.0199 23.424 98.7426 23.376 98.4653 23.376C98.1933 23.376 97.9746 23.4293 97.8093 23.536C97.6439 23.6373 97.5613 23.776 97.5613 23.952C97.5613 24.048 97.5906 24.128 97.6493 24.192C97.7079 24.256 97.8173 24.32 97.9773 24.384C98.1373 24.4427 98.3773 24.5067 98.6973 24.576C99.2146 24.688 99.6199 24.824 99.9133 24.984C100.212 25.1387 100.423 25.3227 100.545 25.536C100.668 25.744 100.729 25.9947 100.729 26.288C100.729 26.8427 100.513 27.28 100.081 27.6C99.6493 27.9147 99.0413 28.072 98.2573 28.072ZM107.401 28.072C106.819 28.072 106.313 27.9547 105.881 27.72C105.449 27.48 105.115 27.1387 104.881 26.696C104.651 26.2533 104.537 25.736 104.537 25.144C104.537 24.552 104.654 24.0373 104.889 23.6C105.123 23.1627 105.454 22.8267 105.881 22.592C106.313 22.352 106.819 22.232 107.401 22.232C107.982 22.232 108.486 22.352 108.913 22.592C109.345 22.8267 109.675 23.1627 109.905 23.6C110.134 24.0373 110.249 24.552 110.249 25.144C110.249 25.736 110.134 26.2533 109.905 26.696C109.675 27.1387 109.345 27.48 108.913 27.72C108.486 27.9547 107.982 28.072 107.401 28.072ZM107.401 26.928C107.827 26.928 108.161 26.776 108.401 26.472C108.646 26.168 108.769 25.7253 108.769 25.144C108.769 24.568 108.646 24.1307 108.401 23.832C108.161 23.528 107.827 23.376 107.401 23.376C106.974 23.376 106.641 23.5253 106.401 23.824C106.161 24.1227 106.041 24.5627 106.041 25.144C106.041 25.7307 106.161 26.176 106.401 26.48C106.641 26.7787 106.974 26.928 107.401 26.928ZM111.526 22.304H114.238C114.889 22.304 115.393 22.4613 115.75 22.776C116.107 23.0853 116.286 23.5067 116.286 24.04C116.286 24.568 116.105 24.9893 115.742 25.304C115.379 25.6187 114.878 25.776 114.238 25.776H113.03V28H111.526V22.304ZM114.038 24.656C114.603 24.656 114.886 24.456 114.886 24.056C114.886 23.8533 114.817 23.7013 114.678 23.6C114.545 23.4933 114.331 23.44 114.038 23.44H113.03V24.656H114.038ZM117.403 22.304H121.467V23.456H118.867V24.528H121.299V25.68H118.867V26.848H121.467V28H117.403V22.304ZM127.727 22.304V28H126.615L124.031 24.768V28H122.631V22.304H123.727L126.311 25.52V22.304H127.727Z" fill="#FFCF70"/>
<rect width="28" height="28" rx="2" fill="white"/>
<path d="M16.2921 3H11.7079L2 25H9.01124L14.1348 11.4615L19.5281 25H26L16.2921 3Z" fill="url(#paint0_linear)"/>
<path d="M17.101 25H11.1685L14.2637 15.9744L17.101 25Z" fill="#262626"/>
<defs>
<linearGradient id="paint0_linear" x1="2" y1="14" x2="26" y2="14" gradientUnits="userSpaceOnUse">
<stop stop-color="#FA7328"/>
<stop offset="1" stop-color="#EE9F15"/>
</linearGradient>
</defs>
</svg>
