<svg width="540" height="805" viewBox="0 0 540 805" fill="none" xmlns="http://www.w3.org/2000/svg">
<g opacity="0.12">
<path d="M587.256 373.532H668.693V371.532H588.084L578.638 362.084H549.472L518.452 331.062H368.694L330.863 293.233L329.45 294.648L367.866 333.062H517.623L548.644 364.084H577.809L587.256 373.532Z" fill="white"/>
<path d="M332.949 291.415C331.479 289.947 329.099 289.947 327.63 291.415C326.163 292.883 326.163 295.263 327.63 296.731C329.099 298.2 331.479 298.2 332.949 296.731C334.415 295.263 334.415 292.883 332.949 291.415Z" fill="white"/>
<path d="M220.959 448.59H529.86L595.524 382.926H645.566L661.757 399.116L663.171 397.702L646.394 380.926H594.696L529.032 446.589H221.789L161.171 385.974H60.926V387.974H160.343L220.959 448.59Z" fill="white"/>
<path d="M61.114 383.214C59.0367 383.214 57.354 384.898 57.354 386.974C57.354 389.05 59.0367 390.734 61.114 390.734C63.19 390.734 64.8727 389.05 64.8727 386.974C64.8727 384.898 63.19 383.214 61.114 383.214Z" fill="white"/>
<path d="M465.985 448.297L467.399 446.883L431.449 410.933H264.575L221.074 367.431H89.4527V369.431H220.246L263.747 412.933H430.621L465.985 448.297Z" fill="white"/>
<path d="M89.6394 372.189C87.5634 372.189 85.8794 370.506 85.8794 368.429C85.8794 366.353 87.5634 364.669 89.6394 364.669C91.7154 364.669 93.3994 366.353 93.3994 368.429C93.3994 370.506 91.7154 372.189 89.6394 372.189Z" fill="white"/>
<path d="M479.114 411.506H566.531V409.505H479.943L440.721 370.284H291.677L234.979 313.589H22.4154V315.589H234.151L290.847 372.284H439.893L479.114 411.506Z" fill="white"/>
<path d="M22.6033 318.349C20.5273 318.349 18.8446 316.665 18.8446 314.589C18.8446 312.513 20.5273 310.829 22.6033 310.829C24.6806 310.829 26.3633 312.513 26.3633 314.589C26.3633 316.665 24.6806 318.349 22.6033 318.349Z" fill="white"/>
<path d="M491.236 394.391H583.644V392.391H492.064L457.478 357.803H323.358V359.803H456.649L491.236 394.391Z" fill="white"/>
<path d="M323.546 362.562C321.47 362.562 319.787 360.879 319.787 358.803C319.787 356.727 321.47 355.042 323.546 355.042C325.622 355.042 327.306 356.727 327.306 358.803C327.306 360.879 325.622 362.562 323.546 362.562Z" fill="white"/>
<path d="M472.738 333.104L474.152 331.689L431.803 289.341H357.997L332.503 263.849H122.967V265.849H331.675L357.169 291.341H430.975L472.738 333.104Z" fill="white"/>
<path d="M123.155 268.609C121.079 268.609 119.397 266.925 119.397 264.849C119.397 262.773 121.079 261.089 123.155 261.089C125.233 261.089 126.915 262.773 126.915 264.849C126.915 266.925 125.233 268.609 123.155 268.609Z" fill="white"/>
<path d="M428.1 332.679L429.514 331.265L411.837 313.589H383.974V315.589H411.009L428.1 332.679Z" fill="white"/>
<path d="M384.162 318.349C382.085 318.349 380.401 316.665 380.401 314.589C380.401 312.513 382.085 310.829 384.162 310.829C386.237 310.829 387.921 312.513 387.921 314.589C387.921 316.665 386.237 318.349 384.162 318.349Z" fill="white"/>
<path d="M264.743 345.898H306.651L324.031 328.518L322.618 327.105L305.823 343.898H264.743V345.898Z" fill="white"/>
<path d="M320.531 325.286C322.001 323.818 324.382 323.818 325.849 325.286C327.317 326.754 327.317 329.136 325.849 330.604C324.382 332.072 322.001 332.072 320.531 330.604C319.065 329.136 319.065 326.754 320.531 325.286Z" fill="white"/>
<path d="M269.455 388.687H356.571L372.975 372.279L371.562 370.864L355.743 386.687H270.283L216.085 332.488H137.231V334.488H215.257L269.455 388.687Z" fill="white"/>
<path d="M137.418 337.248C135.343 337.248 133.659 335.564 133.659 333.488C133.659 331.412 135.343 329.728 137.418 329.728C139.495 329.728 141.178 331.412 141.178 333.488C141.178 335.564 139.495 337.248 137.418 337.248Z" fill="white"/>
<path d="M230.945 434.326H377.251L398.917 412.66L397.503 411.246L376.423 432.326H231.773L194.299 394.85L192.886 396.265L230.945 434.326Z" fill="white"/>
<path d="M191.067 398.349C189.599 396.881 189.599 394.5 191.067 393.033C192.535 391.564 194.917 391.564 196.385 393.033C197.853 394.501 197.851 396.881 196.385 398.349C194.915 399.817 192.535 399.817 191.067 398.349Z" fill="white"/>
<path d="M171.461 288.848H283.117L306.231 265.733L304.817 264.32L282.289 286.848H171.461V288.848Z" fill="white"/>
<path d="M171.649 291.608C169.571 291.608 167.889 289.924 167.889 287.848C167.889 285.772 169.571 284.088 171.649 284.088C173.725 284.088 175.407 285.772 175.407 287.848C175.407 289.924 173.725 291.608 171.649 291.608Z" fill="white"/>
<path d="M159.338 314.941L160.751 313.527L144.77 297.545H58.7875V299.545H143.942L159.338 314.941Z" fill="white"/>
<path d="M58.974 302.305C56.898 302.305 55.214 300.621 55.214 298.545C55.214 296.469 56.898 294.785 58.974 294.785C61.05 294.785 62.734 296.469 62.734 298.545C62.734 300.621 61.05 302.305 58.974 302.305Z" fill="white"/>
<path d="M475.728 435.396H542.462V433.396H476.556L428.687 385.526H391.999V387.526H427.859L475.728 435.396Z" fill="white"/>
<path d="M392.186 390.285C390.111 390.285 388.427 388.602 388.427 386.526C388.427 384.449 390.111 382.766 392.186 382.766C394.263 382.766 395.947 384.449 395.947 386.526C395.947 388.602 394.263 390.285 392.186 390.285Z" fill="white"/>
<path d="M31.526 373.208L50.6367 354.099H176.506L196.409 334.196L194.995 332.781L175.678 352.099H49.8087L30.1127 371.795L31.526 373.208Z" fill="white"/>
<path d="M33.61 375.026C32.142 376.494 29.7607 376.494 28.294 375.026C26.8247 373.558 26.826 371.177 28.294 369.709C29.762 368.241 32.142 368.241 33.6113 369.709C35.0793 371.177 35.0793 373.558 33.61 375.026Z" fill="white"/>
<path d="M622.811 364.086H657.491L675.31 346.268L673.895 344.854L656.662 362.086H623.639L556.246 294.694H507.04L454.623 242.28H385.401V244.28H453.795L506.212 296.694H555.418L622.811 364.086Z" fill="white"/>
<path d="M385.589 239.519C383.511 239.519 381.829 241.203 381.829 243.279C381.829 245.355 383.511 247.039 385.589 247.039C387.665 247.039 389.347 245.355 389.347 243.279C389.347 241.203 387.665 239.519 385.589 239.519Z" fill="white"/>
<path d="M571.824 346.254H605.398V344.254H572.652L543.058 314.658H513.767V316.658H542.23L571.824 346.254Z" fill="white"/>
<path d="M513.955 319.418C511.879 319.418 510.195 317.734 510.195 315.658C510.195 313.582 511.879 311.898 513.955 311.898C516.031 311.898 517.715 313.582 517.715 315.658C517.715 317.734 516.031 319.418 513.955 319.418Z" fill="white"/>
<path d="M411.011 276.012H485.949V274.012H411.839L396.329 258.501H353.719L346.819 251.604L345.405 253.017L352.891 260.501H395.501L411.011 276.012Z" fill="white"/>
<path d="M343.586 255.102C342.119 253.634 342.119 251.253 343.586 249.785C345.054 248.316 347.435 248.316 348.903 249.785C350.371 251.252 350.371 253.633 348.903 255.101C347.437 256.569 345.055 256.569 343.586 255.102Z" fill="white"/>
<path d="M453.858 313.807H478.161L489.476 302.489L488.062 301.076L477.333 311.807H453.858V313.807Z" fill="white"/>
<path d="M485.978 299.257C487.446 297.789 489.827 297.788 491.295 299.256C492.762 300.725 492.763 303.105 491.295 304.573C489.827 306.041 487.446 306.042 485.978 304.574C484.51 303.106 484.509 300.725 485.978 299.257Z" fill="white"/>
<path d="M95.2607 260.089L107.687 247.664H245.502L264.575 228.588H346.117L377.557 260.031L378.97 258.616L346.945 226.588H263.747L244.674 245.664H106.859L93.846 258.675L95.2607 260.089Z" fill="white"/>
<path d="M97.3447 261.908C95.8767 263.376 93.4967 263.376 92.0273 261.908C90.5607 260.438 90.5607 258.057 92.0287 256.59C93.4967 255.122 95.878 255.122 97.3447 256.59C98.814 258.058 98.8127 260.44 97.3447 261.908Z" fill="white"/>
<path d="M269.889 318.48L277.413 310.955H346.173V308.955H276.585L268.474 317.065L269.889 318.48Z" fill="white"/>
<path d="M271.973 320.298C270.506 321.766 268.123 321.766 266.657 320.298C265.187 318.83 265.187 316.449 266.657 314.981C268.123 313.513 270.506 313.513 271.973 314.981C273.442 316.449 273.442 318.83 271.973 320.298Z" fill="white"/>
<path d="M498.228 377.94H556.223L570.316 363.848L568.902 362.433L555.395 375.94H499.056L469.376 346.26H388.751V348.26H468.548L498.228 377.94Z" fill="white"/>
<path d="M388.939 351.02C386.863 351.02 385.179 349.337 385.179 347.26C385.179 345.184 386.863 343.501 388.939 343.501C391.015 343.501 392.699 345.184 392.699 347.26C392.699 349.337 391.015 351.02 388.939 351.02Z" fill="white"/>
<path d="M500.898 351.436H536.316V349.436H500.898V351.436Z" fill="white"/>
<path d="M501.087 354.196C499.011 354.196 497.327 352.512 497.327 350.436C497.327 348.36 499.011 346.676 501.087 346.676C503.163 346.676 504.847 348.36 504.847 350.436C504.847 352.512 503.163 354.196 501.087 354.196Z" fill="white"/>
<path d="M275.142 400.208H331.854L343.921 388.141L342.507 386.727L331.026 398.208H275.142V400.208Z" fill="white"/>
<path d="M275.331 402.968C273.254 402.968 271.57 401.284 271.57 399.208C271.57 397.132 273.254 395.449 275.331 395.449C277.406 395.449 279.09 397.132 279.09 399.208C279.09 401.284 277.406 402.968 275.331 402.968Z" fill="white"/>
<path d="M266.382 247.174H306.155L324.974 228.352L323.561 226.938L305.327 245.174H266.382V247.174Z" fill="white"/>
<path d="M266.569 249.935C264.493 249.935 262.809 248.251 262.809 246.175C262.809 244.099 264.493 242.415 266.569 242.415C268.645 242.415 270.329 244.099 270.329 246.175C270.329 248.251 268.645 249.935 266.569 249.935Z" fill="white"/>
<path d="M228.518 401.085H251.858V399.085H229.346L209.487 379.225H174.97V381.225H208.659L228.518 401.085Z" fill="white"/>
<path d="M175.158 383.985C173.082 383.985 171.399 382.301 171.399 380.225C171.399 378.149 173.082 376.465 175.158 376.465C177.234 376.465 178.918 378.149 178.918 380.225C178.918 382.301 177.234 383.985 175.158 383.985Z" fill="white"/>
<path d="M185.923 301.059H235.773L248.003 288.827L246.589 287.413L234.945 299.059H185.923V301.059Z" fill="white"/>
<path d="M186.11 303.817C184.034 303.817 182.35 302.133 182.35 300.057C182.35 297.981 184.034 296.297 186.11 296.297C188.186 296.297 189.87 297.981 189.87 300.057C189.87 302.133 188.186 303.817 186.11 303.817Z" fill="white"/>
<path d="M187.049 504.472H438.454L494.237 448.689L492.822 447.274L437.626 502.472H187.877L149.033 463.629H17.6581L3.39139 477.897L4.80469 479.312L18.4861 465.629H148.205L187.049 504.472Z" fill="white"/>
<path d="M6.88997 481.129C5.42063 482.597 3.04062 482.597 1.57262 481.131C0.104617 479.663 0.104617 477.281 1.57262 475.814C3.03928 474.344 5.42063 474.344 6.88997 475.812C8.35797 477.281 8.35797 479.661 6.88997 481.129Z" fill="white"/>
<path d="M177.119 469.717H293.598L314.846 448.47L313.431 447.055L292.77 467.717H177.947L135.643 425.413L134.23 426.828L177.119 469.717Z" fill="white"/>
<path d="M132.409 428.912C130.942 427.444 130.942 425.063 132.409 423.595C133.878 422.127 136.259 422.127 137.727 423.595C139.194 425.063 139.194 427.444 137.727 428.912C136.259 430.38 133.878 430.38 132.409 428.912Z" fill="white"/>
<path d="M162.662 429.852H202.502V427.852H163.49L141.805 406.168H99.1833V408.168H140.977L162.662 429.852Z" fill="white"/>
<path d="M99.3714 410.926C97.2941 410.926 95.6114 409.244 95.6114 407.168C95.6114 405.09 97.2941 403.408 99.3714 403.408C101.447 403.408 103.13 405.09 103.13 407.168C103.13 409.244 101.447 410.926 99.3714 410.926Z" fill="white"/>
<path d="M109.361 465.481L110.775 464.066L84.8567 438.147H58.4434V440.147H84.0287L109.361 465.481Z" fill="white"/>
<path d="M58.6313 442.907C56.554 442.907 54.87 441.222 54.87 439.147C54.87 437.071 56.554 435.386 58.6313 435.386C60.706 435.386 62.39 437.071 62.39 439.147C62.39 441.222 60.706 442.907 58.6313 442.907Z" fill="white"/>
<path d="M351.031 488.51L365.443 474.1H467.83V472.1H364.615L349.618 487.097L351.031 488.51Z" fill="white"/>
<path d="M353.115 490.329C351.646 491.797 349.266 491.797 347.797 490.329C346.33 488.861 346.33 486.48 347.797 485.012C349.266 483.544 351.646 483.544 353.115 485.012C354.582 486.48 354.582 488.861 353.115 490.329Z" fill="white"/>
<path d="M238.491 485.488H318.13L355.222 448.396L353.807 446.983L317.302 483.488H238.491V485.488Z" fill="white"/>
<path d="M238.678 488.248C236.603 488.248 234.919 486.564 234.919 484.488C234.919 482.412 236.603 480.728 238.678 480.728C240.755 480.728 242.439 482.412 242.439 484.488C242.439 486.564 240.755 488.248 238.678 488.248Z" fill="white"/>
<path d="M213.075 247.209L214.49 245.796L183.787 215.094H54.6993L31.5247 191.918L30.1113 193.333L53.8713 217.094H182.958L213.075 247.209Z" fill="white"/>
<path d="M28.2927 195.419C26.8234 193.949 26.8234 191.569 28.2927 190.1C29.7594 188.632 32.1407 188.632 33.6087 190.1C35.078 191.569 35.078 193.949 33.6087 195.417C32.1407 196.885 29.7594 196.885 28.2927 195.419Z" fill="white"/>
<path d="M239.194 320.632C240.103 320.591 241.006 320.548 241.897 320.505L234.979 313.589H160.689L159.338 314.941L157.986 313.589H33.2527C32.2207 313.969 31.6847 314.359 31.6847 314.756C31.6847 315.037 31.9541 315.316 32.4794 315.589H234.151L239.194 320.632Z" fill="white"/>
<path d="M159.338 314.941L160.689 313.589L160.751 313.527L154.541 307.316C153.598 307.319 152.659 307.321 151.721 307.324L157.986 313.589L159.338 314.941Z" fill="white"/>
<path d="M265.809 319.001C268.409 318.785 270.814 318.56 273.011 318.326C273.167 317.484 273.034 316.596 272.609 315.826C270.441 315.638 268.379 315.437 266.435 315.222C265.533 316.294 265.325 317.752 265.809 319.001Z" fill="white"/>
<path d="M521.703 337.143C522.603 337.085 523.49 337.028 524.359 336.971L518.452 331.063H473.525L474.152 331.689L472.779 333.063H517.623L521.703 337.143ZM367.866 333.063H472.697L470.697 331.063H429.311L429.514 331.265L428.1 332.679L426.483 331.063H368.694L363.262 325.631C362.345 325.661 361.431 325.692 360.527 325.724L367.866 333.063Z" fill="white"/>
<path d="M472.738 333.104L472.779 333.063L474.152 331.689L473.525 331.063L467.476 325.013C466.519 324.995 465.561 324.977 464.595 324.961L470.697 331.063L472.697 333.063L472.738 333.104Z" fill="white"/>
<path d="M428.1 332.679L429.514 331.265L429.311 331.063L422.895 324.647C421.95 324.648 421.014 324.651 420.074 324.653L426.483 331.063L428.1 332.679Z" fill="white"/>
<path d="M316.667 335.882L321.334 331.216C321.047 331.053 320.777 330.849 320.531 330.604C320.287 330.358 320.083 330.089 319.921 329.802L314.102 335.62C314.929 335.709 315.781 335.796 316.667 335.882Z" fill="white"/>
<path d="M323.191 331.705C324.153 331.705 325.115 331.337 325.849 330.604C326.713 329.74 327.067 328.561 326.915 327.437C324.258 327.629 321.755 327.83 319.433 328.037C319.447 328.648 319.61 329.256 319.921 329.802C320.083 330.089 320.287 330.358 320.531 330.604C320.777 330.849 321.047 331.053 321.334 331.216C321.909 331.541 322.55 331.705 323.191 331.705Z" fill="white"/>
<path d="M350.913 316.11C351.802 316.042 352.675 315.973 353.533 315.902L340.765 303.134C339.787 303.085 338.799 303.04 337.798 302.996L343.758 308.954H346.173V310.954H345.758L350.913 316.11Z" fill="white"/>
<path d="M276.755 311.613L277.413 310.955H346.173V308.955H343.758H276.585L274.223 311.316C275.105 311.415 275.947 311.513 276.755 311.613Z" fill="white"/>
<path d="M445.004 377.396C445.92 377.359 446.821 377.321 447.719 377.283L440.721 370.284H303.277C300.513 370.941 296.245 371.563 290.702 372.139L290.847 372.284H370.142L371.562 370.864L372.975 372.279L372.97 372.284H439.893L445.004 377.396Z" fill="white"/>
<path d="M472.712 375.867C473.606 375.8 474.483 375.732 475.338 375.664L465.94 366.265C464.955 366.203 463.948 366.141 462.928 366.081L472.712 375.867Z" fill="white"/>
<path d="M366.515 378.741L372.97 372.284L372.975 372.279L371.562 370.864L370.142 372.284L363.695 378.733C364.634 378.736 365.57 378.739 366.515 378.741ZM258.474 374.877L257.959 374.363C257.066 374.403 256.163 374.444 255.251 374.483L255.286 374.519C256.294 374.64 257.358 374.76 258.474 374.877Z" fill="white"/>
<path d="M493.822 373.535C494.695 373.375 495.475 373.211 496.161 373.045L491.839 368.724C490.83 368.565 489.729 368.408 488.542 368.255L493.822 373.535Z" fill="white"/>
<path d="M258.286 448.59H311.898L313.431 447.055L314.846 448.47L314.726 448.59H352.201L353.807 446.982L355.222 448.396L355.029 448.59H491.507L492.822 447.274L494.138 448.59H513.213C513.91 448.276 514.269 447.956 514.269 447.63C514.269 447.277 513.844 446.93 513.023 446.589H467.106L467.399 446.882L465.985 448.297L464.278 446.589H258.477C257.655 446.93 257.231 447.277 257.231 447.63C257.231 447.956 257.59 448.276 258.286 448.59Z" fill="white"/>
<path d="M465.985 448.297L467.399 446.883L467.106 446.589L462.158 441.643C461.185 441.6 460.201 441.559 459.207 441.519L464.278 446.589L465.985 448.297Z" fill="white"/>
<path d="M487.95 452.147C489 452.068 490.027 451.986 491.021 451.904L494.237 448.689L494.138 448.59L492.822 447.274L491.507 448.59L487.95 452.147Z" fill="white"/>
<path d="M309.681 453.635L314.726 448.59L314.846 448.471L313.431 447.056L311.898 448.59L306.971 453.516C307.863 453.556 308.77 453.596 309.681 453.635Z" fill="white"/>
<path d="M348.851 454.767L355.029 448.591L355.222 448.396L353.807 446.983L352.201 448.591L346.073 454.717C346.995 454.735 347.919 454.75 348.851 454.767Z" fill="white"/>
<path d="M214.37 439.172L202.922 427.724C202.141 427.767 201.373 427.809 200.61 427.852H202.502V429.852H202.222L211.411 439.041C212.387 439.086 213.373 439.129 214.37 439.172Z" fill="white"/>
<path d="M230.945 434.326H377.251L383.546 428.033C382.667 427.98 381.781 427.926 380.875 427.874L376.423 432.326H231.773L226.171 426.725C225.251 426.755 224.343 426.788 223.438 426.819L230.945 434.326Z" fill="white"/>
<path d="M175.47 429.852H202.502V427.852H200.61C190.431 428.431 181.898 429.105 175.47 429.852Z" fill="white"/>
<path d="M220.203 504.472H438.454L444.226 498.7C443.354 498.642 442.469 498.586 441.567 498.53L437.626 502.472H220.939C219.921 502.849 219.393 503.237 219.393 503.63C219.393 503.916 219.667 504.196 220.203 504.472Z" fill="white"/>
<path d="M226.243 375.426C227.167 375.405 228.091 375.384 229.005 375.36L221.074 367.43H93.2646C93.3526 367.749 93.3993 368.084 93.3993 368.429C93.3993 368.776 93.3513 369.112 93.2646 369.43H220.246L226.243 375.426Z" fill="white"/>
<path d="M89.6394 372.189C91.3688 372.189 92.8261 371.021 93.2647 369.43C93.3514 369.112 93.3994 368.776 93.3994 368.429C93.3994 368.084 93.3527 367.749 93.2647 367.43C92.8261 365.838 91.3688 364.669 89.6394 364.669C87.5634 364.669 85.8794 366.353 85.8794 368.429C85.8794 370.506 87.5634 372.189 89.6394 372.189Z" fill="white"/>
<path d="M284.37 365.807C285.255 365.76 286.153 365.713 287.059 365.668L285.811 364.42C284.814 364.332 283.783 364.245 282.723 364.161L284.37 365.807Z" fill="white"/>
<path d="M249.642 368.873C250.401 368.746 251.219 368.62 252.091 368.496L245.765 362.168C244.799 362.133 243.818 362.1 242.835 362.066L249.642 368.873Z" fill="white"/>
<path d="M436.526 418.838C437.449 418.816 438.375 418.795 439.287 418.771L431.449 410.933H264.575L263.721 410.077C262.839 410.277 262.097 410.479 261.498 410.684L263.747 412.933H395.817L397.503 411.247L398.917 412.66L398.644 412.933H430.621L436.526 418.838Z" fill="white"/>
<path d="M479.114 411.506H516.522C515.84 410.809 513.506 410.138 509.741 409.505H479.943L476.986 406.549C476.005 406.496 475.008 406.441 473.998 406.389L479.114 411.506Z" fill="white"/>
<path d="M389.367 419.383C390.314 419.381 391.257 419.38 392.199 419.379L398.644 412.933L398.917 412.66L397.503 411.247L395.817 412.933L389.367 419.383Z" fill="white"/>
<path d="M458.503 418.17C459.42 418.136 460.323 418.101 461.224 418.065L448.517 405.357C447.551 405.326 446.581 405.297 445.601 405.269L458.503 418.17Z" fill="white"/>
<path d="M154.102 471.526C155.031 471.505 155.947 471.484 156.866 471.461L149.033 463.629H110.337L110.775 464.067L109.361 465.481L107.509 463.629H17.658L11.7287 469.559C12.6007 469.616 13.4887 469.671 14.39 469.725L18.486 465.629H148.205L154.102 471.526Z" fill="white"/>
<path d="M177.119 469.717H200.55C210.142 469.131 218.113 468.457 224.043 467.717H177.947L168.255 458.025C167.293 457.994 166.315 457.965 165.338 457.936L177.119 469.717Z" fill="white"/>
<path d="M109.361 465.481L110.775 464.066L110.337 463.629L103.85 457.141C102.907 457.142 101.966 457.145 101.029 457.148L107.509 463.629L109.361 465.481Z" fill="white"/>
<path d="M104.781 250.57L107.687 247.664H245.502L253.691 239.473C252.769 239.456 251.847 239.438 250.915 239.421L244.674 245.664H214.358L214.49 245.796L213.075 247.209L211.53 245.664H106.859L102.194 250.328C103.029 250.409 103.895 250.49 104.781 250.57Z" fill="white"/>
<path d="M270.194 247.174H306.155L311.561 241.769C310.693 241.708 309.81 241.649 308.911 241.59L305.327 245.174H270.194C270.282 245.493 270.329 245.828 270.329 246.174C270.329 246.521 270.282 246.856 270.194 247.174Z" fill="white"/>
<path d="M266.569 249.935C268.298 249.935 269.755 248.765 270.194 247.175C270.282 246.856 270.329 246.521 270.329 246.175C270.329 245.828 270.282 245.493 270.194 245.175C269.755 243.584 268.298 242.415 266.569 242.415C264.493 242.415 262.809 244.099 262.809 246.175C262.809 248.251 264.493 249.935 266.569 249.935Z" fill="white"/>
<path d="M213.075 247.209L214.49 245.796L214.358 245.664L207.789 239.094C206.845 239.097 205.907 239.1 204.969 239.102L211.53 245.664L213.075 247.209Z" fill="white"/>
<path d="M188.703 222.838C189.625 222.81 190.538 222.781 191.445 222.752L183.787 215.094H54.6992L49.9726 210.366C49.0619 210.408 48.1592 210.449 47.2699 210.492L53.8712 217.094H182.958L188.703 222.838Z" fill="white"/>
<path d="M337.107 271.281C338.025 271.249 338.934 271.216 339.837 271.183L332.503 263.849H143.238C142.382 264.196 141.939 264.551 141.939 264.912C141.939 265.229 142.281 265.543 142.946 265.849H303.287L304.817 264.32L306.231 265.733L306.115 265.849H331.675L337.107 271.281Z" fill="white"/>
<path d="M296.935 272.201C297.893 272.189 298.85 272.177 299.799 272.164L306.115 265.849L306.231 265.733L304.817 264.32L303.287 265.849L296.935 272.201Z" fill="white"/>
<path d="M352.891 260.501H374.027C367.551 259.992 359.985 259.53 351.522 259.132L352.891 260.501Z" fill="white"/>
</g>
<g opacity="0.12">
<path d="M637.256 83.5254H718.693V81.5254H638.084L628.638 72.0774H599.472L568.452 41.0561H418.694L380.863 3.22673L379.45 4.6414L417.866 43.0561H567.623L598.644 74.0774H627.809L637.256 83.5254Z" fill="white"/>
<path d="M382.949 1.40817C381.479 -0.0598269 379.099 -0.0598269 377.63 1.40817C376.163 2.87617 376.163 5.25617 377.63 6.72417C379.099 8.19351 381.479 8.19351 382.949 6.72417C384.415 5.25617 384.415 2.87617 382.949 1.40817Z" fill="white"/>
<path d="M270.959 158.584H579.86L645.524 92.92H695.566L711.757 109.109L713.171 107.696L696.394 90.92H644.696L579.032 156.582H271.789L211.171 95.968H110.926V97.968H210.343L270.959 158.584Z" fill="white"/>
<path d="M111.114 93.208C109.037 93.208 107.354 94.892 107.354 96.968C107.354 99.044 109.037 100.728 111.114 100.728C113.19 100.728 114.873 99.044 114.873 96.968C114.873 94.892 113.19 93.208 111.114 93.208Z" fill="white"/>
<path d="M515.985 158.291L517.399 156.876L481.449 120.927H314.575L271.074 77.4243H139.453V79.4243H270.246L313.747 122.927H480.621L515.985 158.291Z" fill="white"/>
<path d="M139.639 82.1826C137.563 82.1826 135.879 80.4999 135.879 78.4226C135.879 76.3466 137.563 74.6626 139.639 74.6626C141.715 74.6626 143.399 76.3466 143.399 78.4226C143.399 80.4999 141.715 82.1826 139.639 82.1826Z" fill="white"/>
<path d="M529.114 121.5H616.531V119.499H529.943L490.721 80.2773H341.677L284.979 23.5827H72.4154V25.5827H284.151L340.847 82.2773H489.893L529.114 121.5Z" fill="white"/>
<path d="M72.6033 28.3428C70.5273 28.3428 68.8447 26.6588 68.8447 24.5828C68.8447 22.5068 70.5273 20.8228 72.6033 20.8228C74.6806 20.8228 76.3633 22.5068 76.3633 24.5828C76.3633 26.6588 74.6806 28.3428 72.6033 28.3428Z" fill="white"/>
<path d="M541.236 104.384H633.644V102.384H542.064L507.478 67.7963H373.358V69.7963H506.649L541.236 104.384Z" fill="white"/>
<path d="M373.546 72.5562C371.47 72.5562 369.787 70.8722 369.787 68.7962C369.787 66.7202 371.47 65.0361 373.546 65.0361C375.622 65.0361 377.306 66.7202 377.306 68.7962C377.306 70.8722 375.622 72.5562 373.546 72.5562Z" fill="white"/>
<path d="M522.738 43.0977L524.152 41.683L481.803 -0.665005H407.997L382.503 -26.157H172.967V-24.157H381.675L407.169 1.335H480.975L522.738 43.0977Z" fill="white"/>
<path d="M478.1 42.6724L479.514 41.259L461.837 23.583H433.974V25.583H461.009L478.1 42.6724Z" fill="white"/>
<path d="M434.162 28.3428C432.085 28.3428 430.401 26.6588 430.401 24.5828C430.401 22.5068 432.085 20.8228 434.162 20.8228C436.237 20.8228 437.921 22.5068 437.921 24.5828C437.921 26.6588 436.237 28.3428 434.162 28.3428Z" fill="white"/>
<path d="M314.743 55.8921H356.651L374.031 38.5121L372.618 37.0988L355.823 53.8921H314.743V55.8921Z" fill="white"/>
<path d="M370.531 35.2799C372.001 33.8119 374.382 33.8119 375.849 35.2799C377.317 36.7479 377.317 39.1292 375.849 40.5972C374.382 42.0652 372.001 42.0652 370.531 40.5972C369.065 39.1292 369.065 36.7479 370.531 35.2799Z" fill="white"/>
<path d="M319.455 98.6802H406.571L422.975 82.2722L421.562 80.8575L405.743 96.6802H320.283L266.085 42.4815H187.231V44.4815H265.257L319.455 98.6802Z" fill="white"/>
<path d="M187.418 47.2417C185.343 47.2417 183.659 45.5577 183.659 43.4817C183.659 41.4057 185.343 39.7217 187.418 39.7217C189.495 39.7217 191.178 41.4057 191.178 43.4817C191.178 45.5577 189.495 47.2417 187.418 47.2417Z" fill="white"/>
<path d="M280.945 144.32H427.251L448.917 122.653L447.503 121.24L426.423 142.32H281.773L244.299 104.844L242.886 106.259L280.945 144.32Z" fill="white"/>
<path d="M241.067 108.343C239.599 106.875 239.599 104.494 241.067 103.027C242.535 101.558 244.917 101.558 246.385 103.027C247.853 104.495 247.851 106.875 246.385 108.343C244.915 109.811 242.535 109.811 241.067 108.343Z" fill="white"/>
<path d="M221.649 1.60156C219.571 1.60156 217.889 -0.0824472 217.889 -2.15845C217.889 -4.23445 219.571 -5.91844 221.649 -5.91844C223.725 -5.91844 225.407 -4.23445 225.407 -2.15845C225.407 -0.0824472 223.725 1.60156 221.649 1.60156Z" fill="white"/>
<path d="M209.338 24.9346L210.751 23.5199L194.77 7.53856H108.787V9.53856H193.942L209.338 24.9346Z" fill="white"/>
<path d="M108.974 12.2988C106.898 12.2988 105.214 10.6148 105.214 8.53882C105.214 6.46282 106.898 4.77883 108.974 4.77883C111.05 4.77883 112.734 6.46282 112.734 8.53882C112.734 10.6148 111.05 12.2988 108.974 12.2988Z" fill="white"/>
<path d="M525.728 145.389H592.462V143.389H526.556L478.687 95.52H441.999V97.52H477.859L525.728 145.389Z" fill="white"/>
<path d="M442.186 100.279C440.111 100.279 438.427 98.5961 438.427 96.5201C438.427 94.4428 440.111 92.7601 442.186 92.7601C444.263 92.7601 445.947 94.4428 445.947 96.5201C445.947 98.5961 444.263 100.279 442.186 100.279Z" fill="white"/>
<path d="M81.526 83.2017L100.637 64.0923H226.506L246.409 44.1897L244.995 42.775L225.678 62.0923H99.8086L80.1126 81.7883L81.526 83.2017Z" fill="white"/>
<path d="M83.6101 85.0201C82.1421 86.4881 79.7607 86.4881 78.2941 85.0201C76.8247 83.5521 76.8261 81.1708 78.2941 79.7028C79.7621 78.2348 82.1421 78.2348 83.6114 79.7028C85.0794 81.1708 85.0794 83.5521 83.6101 85.0201Z" fill="white"/>
<path d="M672.811 74.0801H707.491L725.31 56.2614L723.895 54.8481L706.662 72.0801H673.639L606.246 4.68807H557.04L504.623 -47.7266H435.401V-45.7266H503.795L556.212 6.68807H605.418L672.811 74.0801Z" fill="white"/>
<path d="M503.858 23.8003H528.161L539.476 12.483L538.062 11.0696L527.333 21.8003H503.858V23.8003Z" fill="white"/>
<path d="M535.978 9.25079C537.446 7.78279 539.827 7.78146 541.295 9.24946C542.762 10.7188 542.763 13.0988 541.295 14.5668C539.827 16.0348 537.446 16.0361 535.978 14.5681C534.51 13.1001 534.509 10.7188 535.978 9.25079Z" fill="white"/>
<path d="M319.889 28.4736L327.413 20.9483H396.173V18.9483H326.585L318.474 27.059L319.889 28.4736Z" fill="white"/>
<path d="M321.973 30.2921C320.506 31.7601 318.123 31.7601 316.657 30.2921C315.187 28.8241 315.187 26.4427 316.657 24.9747C318.123 23.5067 320.506 23.5067 321.973 24.9747C323.442 26.4427 323.442 28.8241 321.973 30.2921Z" fill="white"/>
<path d="M548.228 87.9336H606.223L620.316 73.8416L618.902 72.4269L605.395 85.9336H549.056L519.376 56.2536H438.751V58.2536H518.548L548.228 87.9336Z" fill="white"/>
<path d="M438.939 61.0137C436.863 61.0137 435.179 59.331 435.179 57.2537C435.179 55.1777 436.863 53.495 438.939 53.495C441.015 53.495 442.699 55.1777 442.699 57.2537C442.699 59.331 441.015 61.0137 438.939 61.0137Z" fill="white"/>
<path d="M325.142 110.202H381.854L393.921 98.135L392.507 96.7203L381.026 108.202H325.142V110.202Z" fill="white"/>
<path d="M325.331 112.961C323.254 112.961 321.57 111.277 321.57 109.201C321.57 107.125 323.254 105.443 325.331 105.443C327.406 105.443 329.09 107.125 329.09 109.201C329.09 111.277 327.406 112.961 325.331 112.961Z" fill="white"/>
<path d="M278.518 111.079H301.858V109.079H279.346L259.487 89.2186H224.97V91.2186H258.659L278.518 111.079Z" fill="white"/>
<path d="M225.158 93.979C223.082 93.979 221.399 92.295 221.399 90.219C221.399 88.143 223.082 86.459 225.158 86.459C227.234 86.459 228.918 88.143 228.918 90.219C228.918 92.295 227.234 93.979 225.158 93.979Z" fill="white"/>
<path d="M235.923 11.0522H285.773L298.003 -1.17975L296.589 -2.59308L284.945 9.05225H235.923V11.0522Z" fill="white"/>
<path d="M236.11 13.811C234.034 13.811 232.35 12.127 232.35 10.051C232.35 7.97504 234.034 6.29103 236.11 6.29103C238.186 6.29103 239.87 7.97504 239.87 10.051C239.87 12.127 238.186 13.811 236.11 13.811Z" fill="white"/>
<path d="M237.049 214.465H488.454L544.237 158.683L542.822 157.268L487.626 212.465H237.877L199.033 173.623H67.6581L53.3914 187.891L54.8047 189.305L68.4861 175.623H198.205L237.049 214.465Z" fill="white"/>
<path d="M56.89 191.123C55.4207 192.591 53.0407 192.591 51.5727 191.124C50.1047 189.656 50.1047 187.275 51.5727 185.807C53.0393 184.337 55.4207 184.337 56.89 185.806C58.358 187.275 58.358 189.655 56.89 191.123Z" fill="white"/>
<path d="M227.119 179.71H343.598L364.846 158.464L363.431 157.049L342.77 177.71H227.947L185.643 135.407L184.23 136.821L227.119 179.71Z" fill="white"/>
<path d="M182.409 138.906C180.942 137.437 180.942 135.056 182.409 133.588C183.878 132.12 186.259 132.12 187.727 133.588C189.194 135.056 189.194 137.437 187.727 138.906C186.259 140.374 183.878 140.374 182.409 138.906Z" fill="white"/>
<path d="M212.662 139.846H252.502V137.846H213.49L191.805 116.162H149.183V118.162H190.977L212.662 139.846Z" fill="white"/>
<path d="M149.371 120.92C147.294 120.92 145.611 119.237 145.611 117.161C145.611 115.084 147.294 113.401 149.371 113.401C151.447 113.401 153.13 115.084 153.13 117.161C153.13 119.237 151.447 120.92 149.371 120.92Z" fill="white"/>
<path d="M159.361 175.475L160.775 174.06L134.857 148.14H108.443V150.14H134.029L159.361 175.475Z" fill="white"/>
<path d="M108.631 152.9C106.554 152.9 104.87 151.216 104.87 149.141C104.87 147.064 106.554 145.38 108.631 145.38C110.706 145.38 112.39 147.064 112.39 149.141C112.39 151.216 110.706 152.9 108.631 152.9Z" fill="white"/>
<path d="M401.031 198.504L415.443 184.094H517.83V182.094H414.615L399.618 197.091L401.031 198.504Z" fill="white"/>
<path d="M403.115 200.323C401.646 201.791 399.266 201.791 397.797 200.323C396.33 198.855 396.33 196.474 397.797 195.006C399.266 193.537 401.646 193.537 403.115 195.006C404.582 196.474 404.582 198.855 403.115 200.323Z" fill="white"/>
<path d="M288.491 195.481H368.13L405.222 158.389L403.807 156.976L367.302 193.481H288.491V195.481Z" fill="white"/>
<path d="M288.678 198.241C286.603 198.241 284.919 196.557 284.919 194.481C284.919 192.405 286.603 190.721 288.678 190.721C290.755 190.721 292.439 192.405 292.439 194.481C292.439 196.557 290.755 198.241 288.678 198.241Z" fill="white"/>
<path d="M289.194 30.6255C290.103 30.5842 291.006 30.5415 291.897 30.4988L284.979 23.5828H210.689L209.338 24.9348L207.986 23.5828H83.2527C82.2207 23.9628 81.6847 24.3522 81.6847 24.7495C81.6847 25.0308 81.954 25.3095 82.4793 25.5828H284.151L289.194 30.6255Z" fill="white"/>
<path d="M209.338 24.9346L210.689 23.5826L210.751 23.5199L204.541 17.3092C203.598 17.3119 202.659 17.3146 201.721 17.3172L207.986 23.5826L209.338 24.9346Z" fill="white"/>
<path d="M315.809 28.9946C318.409 28.7786 320.814 28.5533 323.011 28.32C323.167 27.4773 323.034 26.5893 322.609 25.82C320.441 25.632 318.379 25.4306 316.435 25.216C315.533 26.288 315.325 27.7453 315.809 28.9946Z" fill="white"/>
<path d="M571.703 47.1362C572.603 47.0789 573.49 47.0216 574.359 46.9642L568.452 41.0562H523.525L524.152 41.6829L522.779 43.0562H567.623L571.703 47.1362ZM417.866 43.0562H522.697L520.697 41.0562H479.311L479.514 41.2589L478.1 42.6722L476.483 41.0562H418.694L413.262 35.6242C412.345 35.6549 411.431 35.6856 410.527 35.7176L417.866 43.0562Z" fill="white"/>
<path d="M522.738 43.0977L522.779 43.0563L524.152 41.683L523.525 41.0563L517.476 35.007C516.519 34.9883 515.561 34.971 514.595 34.955L520.697 41.0563L522.697 43.0563L522.738 43.0977Z" fill="white"/>
<path d="M478.1 42.6724L479.514 41.259L479.311 41.0564L472.895 34.6404C471.95 34.6417 471.014 34.6444 470.074 34.647L476.483 41.0564L478.1 42.6724Z" fill="white"/>
<path d="M366.667 45.876L371.334 41.2093C371.047 41.0466 370.777 40.8426 370.531 40.5973C370.287 40.352 370.083 40.0826 369.921 39.796L364.102 45.6133C364.929 45.7026 365.781 45.7893 366.667 45.876Z" fill="white"/>
<path d="M373.191 41.6987C374.153 41.6987 375.115 41.3307 375.849 40.5974C376.713 39.7334 377.067 38.5547 376.915 37.4307C374.258 37.6227 371.755 37.8241 369.433 38.0307C369.447 38.6414 369.61 39.2494 369.921 39.7961C370.083 40.0827 370.287 40.3521 370.531 40.5974C370.777 40.8427 371.047 41.0467 371.334 41.2094C371.909 41.5347 372.55 41.6987 373.191 41.6987Z" fill="white"/>
<path d="M400.913 26.104C401.802 26.036 402.675 25.9667 403.533 25.896L390.765 13.128C389.787 13.0787 388.799 13.0333 387.798 12.9893L393.758 18.948H396.173V20.948H395.758L400.913 26.104Z" fill="white"/>
<path d="M326.755 21.6069L327.413 20.9483H396.173V18.9483H393.758H326.585L324.223 21.3096C325.105 21.4083 325.947 21.5069 326.755 21.6069Z" fill="white"/>
<path d="M495.004 87.3896C495.92 87.3523 496.821 87.315 497.719 87.2763L490.721 80.2777H353.277C350.513 80.935 346.245 81.5563 340.702 82.1323L340.847 82.2777H420.142L421.562 80.8576L422.975 82.2723L422.97 82.2777H489.893L495.004 87.3896Z" fill="white"/>
<path d="M522.712 85.8604C523.606 85.7937 524.483 85.7257 525.338 85.6577L515.94 76.259C514.955 76.1964 513.948 76.135 512.928 76.075L522.712 85.8604Z" fill="white"/>
<path d="M416.515 88.7349L422.97 82.2775L422.975 82.2722L421.562 80.8575L420.142 82.2775L413.695 88.7269C414.634 88.7295 415.57 88.7322 416.515 88.7349ZM308.474 84.8708L307.959 84.3562C307.066 84.3962 306.163 84.4375 305.251 84.4762L305.286 84.5122C306.294 84.6335 307.358 84.7535 308.474 84.8708Z" fill="white"/>
<path d="M543.822 83.5283C544.695 83.3683 545.475 83.2043 546.161 83.039L541.839 78.7177C540.83 78.559 539.729 78.4017 538.542 78.2483L543.822 83.5283Z" fill="white"/>
<path d="M308.286 158.584H361.898L363.431 157.049L364.846 158.464L364.726 158.584H402.201L403.807 156.976L405.222 158.389L405.029 158.584H541.507L542.822 157.268L544.138 158.584H563.213C563.91 158.269 564.269 157.95 564.269 157.624C564.269 157.27 563.844 156.924 563.023 156.582H517.106L517.399 156.876L515.985 158.291L514.278 156.582H308.477C307.655 156.924 307.231 157.27 307.231 157.624C307.231 157.95 307.59 158.269 308.286 158.584Z" fill="white"/>
<path d="M515.985 158.291L517.399 156.876L517.106 156.583L512.158 151.636C511.185 151.594 510.201 151.552 509.207 151.512L514.278 156.583L515.985 158.291Z" fill="white"/>
<path d="M537.95 162.141C539 162.062 540.027 161.98 541.021 161.897L544.237 158.682L544.138 158.584L542.822 157.268L541.507 158.584L537.95 162.141Z" fill="white"/>
<path d="M359.681 163.628L364.726 158.584L364.846 158.464L363.431 157.049L361.898 158.584L356.971 163.51C357.863 163.549 358.77 163.589 359.681 163.628Z" fill="white"/>
<path d="M398.851 164.76L405.029 158.584L405.222 158.389L403.807 156.976L402.201 158.584L396.073 164.711C396.995 164.729 397.919 164.744 398.851 164.76Z" fill="white"/>
<path d="M264.37 149.166L252.922 137.718C252.141 137.76 251.373 137.803 250.61 137.846H252.502V139.846H252.222L261.411 149.035C262.387 149.08 263.373 149.123 264.37 149.166Z" fill="white"/>
<path d="M280.945 144.32H427.251L433.546 138.027C432.667 137.974 431.781 137.92 430.875 137.868L426.423 142.32H281.773L276.171 136.719C275.251 136.749 274.343 136.781 273.438 136.813L280.945 144.32Z" fill="white"/>
<path d="M225.47 139.846H252.502V137.846H250.61C240.431 138.424 231.898 139.099 225.47 139.846Z" fill="white"/>
<path d="M270.203 214.465H488.454L494.226 208.693C493.354 208.636 492.469 208.58 491.567 208.524L487.626 212.465H270.939C269.921 212.843 269.393 213.231 269.393 213.624C269.393 213.91 269.667 214.189 270.203 214.465Z" fill="white"/>
<path d="M276.243 85.4199C277.167 85.3986 278.091 85.3773 279.005 85.3533L271.074 77.4239H143.265C143.353 77.7426 143.399 78.0773 143.399 78.4226C143.399 78.7693 143.351 79.1053 143.265 79.4239H270.246L276.243 85.4199Z" fill="white"/>
<path d="M139.639 82.1826C141.369 82.1826 142.826 81.0146 143.265 79.4239C143.351 79.1053 143.399 78.7693 143.399 78.4226C143.399 78.0773 143.353 77.7426 143.265 77.4239C142.826 75.8319 141.369 74.6626 139.639 74.6626C137.563 74.6626 135.879 76.3466 135.879 78.4226C135.879 80.4999 137.563 82.1826 139.639 82.1826Z" fill="white"/>
<path d="M334.37 75.8003C335.255 75.7536 336.153 75.707 337.059 75.6616L335.811 74.4136C334.814 74.3256 333.783 74.2389 332.723 74.1549L334.37 75.8003Z" fill="white"/>
<path d="M299.642 78.8667C300.401 78.74 301.219 78.6134 302.091 78.4894L295.765 72.1614C294.799 72.1267 293.818 72.0934 292.835 72.06L299.642 78.8667Z" fill="white"/>
<path d="M486.526 128.832C487.449 128.81 488.375 128.788 489.287 128.764L481.449 120.927H314.575L313.721 120.071C312.839 120.271 312.097 120.472 311.498 120.677L313.747 122.927H445.817L447.503 121.24L448.917 122.653L448.644 122.927H480.621L486.526 128.832Z" fill="white"/>
<path d="M529.114 121.5H566.522C565.84 120.803 563.506 120.132 559.741 119.499H529.943L526.986 116.543C526.005 116.489 525.008 116.435 523.998 116.383L529.114 121.5Z" fill="white"/>
<path d="M439.367 129.376C440.314 129.375 441.257 129.374 442.199 129.372L448.644 122.927L448.917 122.654L447.503 121.24L445.817 122.927L439.367 129.376Z" fill="white"/>
<path d="M508.503 128.164C509.42 128.129 510.323 128.095 511.224 128.058L498.517 115.351C497.551 115.32 496.581 115.291 495.601 115.263L508.503 128.164Z" fill="white"/>
<path d="M204.102 181.52C205.031 181.499 205.947 181.477 206.866 181.455L199.033 173.623H160.337L160.775 174.06L159.361 175.475L157.509 173.623H67.6581L61.7287 179.552C62.6007 179.61 63.4887 179.664 64.3901 179.719L68.4861 175.623H198.205L204.102 181.52Z" fill="white"/>
<path d="M227.119 179.71H250.55C260.142 179.125 268.113 178.451 274.043 177.71H227.947L218.255 168.019C217.293 167.988 216.315 167.958 215.338 167.929L227.119 179.71Z" fill="white"/>
<path d="M159.361 175.475L160.775 174.06L160.337 173.623L153.85 167.135C152.907 167.136 151.966 167.139 151.029 167.141L157.509 173.623L159.361 175.475Z" fill="white"/>
</g>
<g opacity="0.12">
<path d="M687.256 673.513H768.693V671.513H688.084L678.638 662.065H649.472L618.452 631.043H468.694L430.863 593.214L429.45 594.629L467.866 633.043H617.623L648.644 664.065H677.809L687.256 673.513Z" fill="white"/>
<path d="M432.949 591.395C431.479 589.927 429.099 589.927 427.63 591.395C426.163 592.863 426.163 595.243 427.63 596.711C429.099 598.181 431.479 598.181 432.949 596.711C434.415 595.243 434.415 592.863 432.949 591.395Z" fill="white"/>
<path d="M320.959 748.571H629.86L695.524 682.907H745.566L761.757 699.097L763.171 697.683L746.394 680.907H694.696L629.032 746.57H321.789L261.171 685.955H160.926V687.955H260.343L320.959 748.571Z" fill="white"/>
<path d="M161.114 683.195C159.037 683.195 157.354 684.879 157.354 686.955C157.354 689.031 159.037 690.715 161.114 690.715C163.19 690.715 164.873 689.031 164.873 686.955C164.873 684.879 163.19 683.195 161.114 683.195Z" fill="white"/>
<path d="M565.985 748.278L567.399 746.864L531.449 710.914H364.575L321.074 667.412H189.453V669.412H320.246L363.747 712.914H530.621L565.985 748.278Z" fill="white"/>
<path d="M189.639 672.17C187.563 672.17 185.879 670.487 185.879 668.41C185.879 666.334 187.563 664.65 189.639 664.65C191.715 664.65 193.399 666.334 193.399 668.41C193.399 670.487 191.715 672.17 189.639 672.17Z" fill="white"/>
<path d="M579.114 711.487H666.531V709.486H579.943L540.721 670.265H391.677L334.979 613.57H122.415V615.57H334.151L390.847 672.265H539.893L579.114 711.487Z" fill="white"/>
<path d="M122.603 618.33C120.527 618.33 118.845 616.646 118.845 614.57C118.845 612.494 120.527 610.81 122.603 610.81C124.681 610.81 126.363 612.494 126.363 614.57C126.363 616.646 124.681 618.33 122.603 618.33Z" fill="white"/>
<path d="M591.236 694.372H683.644V692.372H592.064L557.478 657.784H423.358V659.784H556.649L591.236 694.372Z" fill="white"/>
<path d="M423.546 662.543C421.47 662.543 419.787 660.859 419.787 658.783C419.787 656.707 421.47 655.023 423.546 655.023C425.622 655.023 427.306 656.707 427.306 658.783C427.306 660.859 425.622 662.543 423.546 662.543Z" fill="white"/>
<path d="M572.738 633.085L574.152 631.67L531.803 589.322H457.997L432.503 563.83H222.967V565.83H431.675L457.169 591.322H530.975L572.738 633.085Z" fill="white"/>
<path d="M223.155 568.59C221.079 568.59 219.397 566.906 219.397 564.83C219.397 562.754 221.079 561.07 223.155 561.07C225.233 561.07 226.915 562.754 226.915 564.83C226.915 566.906 225.233 568.59 223.155 568.59Z" fill="white"/>
<path d="M528.1 632.66L529.514 631.246L511.837 613.57H483.974V615.57H511.009L528.1 632.66Z" fill="white"/>
<path d="M484.162 618.33C482.085 618.33 480.401 616.646 480.401 614.57C480.401 612.494 482.085 610.81 484.162 610.81C486.237 610.81 487.921 612.494 487.921 614.57C487.921 616.646 486.237 618.33 484.162 618.33Z" fill="white"/>
<path d="M364.743 645.879H406.651L424.031 628.499L422.618 627.086L405.823 643.879H364.743V645.879Z" fill="white"/>
<path d="M420.531 625.267C422.001 623.799 424.382 623.799 425.849 625.267C427.317 626.735 427.317 629.117 425.849 630.585C424.382 632.053 422.001 632.053 420.531 630.585C419.065 629.117 419.065 626.735 420.531 625.267Z" fill="white"/>
<path d="M369.455 688.667H456.571L472.975 672.259L471.562 670.845L455.743 686.667H370.283L316.085 632.469H237.231V634.469H315.257L369.455 688.667Z" fill="white"/>
<path d="M237.418 637.229C235.343 637.229 233.659 635.545 233.659 633.469C233.659 631.393 235.343 629.709 237.418 629.709C239.495 629.709 241.178 631.393 241.178 633.469C241.178 635.545 239.495 637.229 237.418 637.229Z" fill="white"/>
<path d="M330.945 734.307H477.251L498.917 712.64L497.503 711.227L476.423 732.307H331.773L294.299 694.831L292.886 696.246L330.945 734.307Z" fill="white"/>
<path d="M291.067 698.33C289.599 696.862 289.599 694.481 291.067 693.014C292.535 691.545 294.917 691.545 296.385 693.014C297.853 694.482 297.851 696.862 296.385 698.33C294.915 699.798 292.535 699.798 291.067 698.33Z" fill="white"/>
<path d="M271.461 588.829H383.117L406.231 565.714L404.817 564.301L382.289 586.829H271.461V588.829Z" fill="white"/>
<path d="M271.649 591.589C269.571 591.589 267.889 589.905 267.889 587.829C267.889 585.753 269.571 584.069 271.649 584.069C273.725 584.069 275.407 585.753 275.407 587.829C275.407 589.905 273.725 591.589 271.649 591.589Z" fill="white"/>
<path d="M259.338 614.922L260.751 613.507L244.77 597.526H158.787V599.526H243.942L259.338 614.922Z" fill="white"/>
<path d="M158.974 602.286C156.898 602.286 155.214 600.602 155.214 598.526C155.214 596.45 156.898 594.766 158.974 594.766C161.05 594.766 162.734 596.45 162.734 598.526C162.734 600.602 161.05 602.286 158.974 602.286Z" fill="white"/>
<path d="M575.728 735.376H642.462V733.376H576.556L528.687 685.507H491.999V687.507H527.859L575.728 735.376Z" fill="white"/>
<path d="M492.186 690.266C490.111 690.266 488.427 688.583 488.427 686.507C488.427 684.43 490.111 682.747 492.186 682.747C494.263 682.747 495.947 684.43 495.947 686.507C495.947 688.583 494.263 690.266 492.186 690.266Z" fill="white"/>
<path d="M131.526 673.189L150.637 654.08H276.506L296.409 634.177L294.995 632.762L275.678 652.08H149.809L130.113 671.776L131.526 673.189Z" fill="white"/>
<path d="M133.61 675.007C132.142 676.475 129.761 676.475 128.294 675.007C126.825 673.539 126.826 671.158 128.294 669.69C129.762 668.222 132.142 668.222 133.611 669.69C135.079 671.158 135.079 673.539 133.61 675.007Z" fill="white"/>
<path d="M722.811 664.067H757.491L775.31 646.249L773.895 644.835L756.662 662.067H723.639L656.246 594.675H607.04L554.623 542.261H485.401V544.261H553.795L606.212 596.675H655.418L722.811 664.067Z" fill="white"/>
<path d="M485.589 539.5C483.511 539.5 481.829 541.184 481.829 543.26C481.829 545.336 483.511 547.02 485.589 547.02C487.665 547.02 489.347 545.336 489.347 543.26C489.347 541.184 487.665 539.5 485.589 539.5Z" fill="white"/>
<path d="M511.011 575.993H585.949V573.993H511.839L496.329 558.482H453.719L446.819 551.585L445.405 552.998L452.891 560.482H495.501L511.011 575.993Z" fill="white"/>
<path d="M443.586 555.083C442.119 553.615 442.119 551.234 443.586 549.766C445.054 548.297 447.435 548.297 448.903 549.766C450.371 551.233 450.371 553.614 448.903 555.082C447.437 556.55 445.055 556.55 443.586 555.083Z" fill="white"/>
<path d="M195.261 560.07L207.687 547.645H345.502L364.575 528.569H446.117L477.557 560.012L478.97 558.597L446.945 526.569H363.747L344.674 545.645H206.859L193.846 558.656L195.261 560.07Z" fill="white"/>
<path d="M197.345 561.889C195.877 563.357 193.497 563.357 192.027 561.889C190.561 560.419 190.561 558.038 192.029 556.571C193.497 555.103 195.878 555.103 197.345 556.571C198.814 558.039 198.813 560.421 197.345 561.889Z" fill="white"/>
<path d="M369.889 618.461L377.413 610.936H446.173V608.936H376.585L368.474 617.046L369.889 618.461Z" fill="white"/>
<path d="M371.973 620.279C370.506 621.747 368.123 621.747 366.657 620.279C365.187 618.811 365.187 616.43 366.657 614.962C368.123 613.494 370.506 613.494 371.973 614.962C373.442 616.43 373.442 618.811 371.973 620.279Z" fill="white"/>
<path d="M598.228 677.921H656.223L670.316 663.829L668.902 662.414L655.395 675.921H599.056L569.376 646.241H488.751V648.241H568.548L598.228 677.921Z" fill="white"/>
<path d="M488.939 651.001C486.863 651.001 485.179 649.318 485.179 647.241C485.179 645.165 486.863 643.482 488.939 643.482C491.015 643.482 492.699 645.165 492.699 647.241C492.699 649.318 491.015 651.001 488.939 651.001Z" fill="white"/>
<path d="M375.142 700.189H431.854L443.921 688.122L442.507 686.708L431.026 698.189H375.142V700.189Z" fill="white"/>
<path d="M375.331 702.949C373.254 702.949 371.57 701.265 371.57 699.189C371.57 697.113 373.254 695.43 375.331 695.43C377.406 695.43 379.09 697.113 379.09 699.189C379.09 701.265 377.406 702.949 375.331 702.949Z" fill="white"/>
<path d="M366.382 547.155H406.155L424.974 528.333L423.561 526.919L405.327 545.155H366.382V547.155Z" fill="white"/>
<path d="M366.569 549.916C364.493 549.916 362.809 548.232 362.809 546.156C362.809 544.08 364.493 542.396 366.569 542.396C368.645 542.396 370.329 544.08 370.329 546.156C370.329 548.232 368.645 549.916 366.569 549.916Z" fill="white"/>
<path d="M328.518 701.066H351.858V699.066H329.346L309.487 679.206H274.97V681.206H308.659L328.518 701.066Z" fill="white"/>
<path d="M275.158 683.966C273.082 683.966 271.399 682.282 271.399 680.206C271.399 678.13 273.082 676.446 275.158 676.446C277.234 676.446 278.918 678.13 278.918 680.206C278.918 682.282 277.234 683.966 275.158 683.966Z" fill="white"/>
<path d="M285.923 601.04H335.773L348.003 588.808L346.589 587.394L334.945 599.04H285.923V601.04Z" fill="white"/>
<path d="M286.11 603.798C284.034 603.798 282.35 602.114 282.35 600.038C282.35 597.962 284.034 596.278 286.11 596.278C288.186 596.278 289.87 597.962 289.87 600.038C289.87 602.114 288.186 603.798 286.11 603.798Z" fill="white"/>
<path d="M287.049 804.453H538.454L594.237 748.67L592.822 747.255L537.626 802.453H287.877L249.033 763.61H117.658L103.391 777.878L104.805 779.293L118.486 765.61H248.205L287.049 804.453Z" fill="white"/>
<path d="M106.89 781.11C105.421 782.578 103.041 782.578 101.573 781.112C100.105 779.643 100.105 777.262 101.573 775.795C103.039 774.325 105.421 774.325 106.89 775.793C108.358 777.262 108.358 779.642 106.89 781.11Z" fill="white"/>
<path d="M277.119 769.698H393.598L414.846 748.451L413.431 747.036L392.77 767.698H277.947L235.643 725.394L234.23 726.809L277.119 769.698Z" fill="white"/>
<path d="M232.409 728.893C230.942 727.425 230.942 725.043 232.409 723.576C233.878 722.107 236.259 722.107 237.727 723.576C239.194 725.043 239.194 727.425 237.727 728.893C236.259 730.361 233.878 730.361 232.409 728.893Z" fill="white"/>
<path d="M262.662 729.833H302.502V727.833H263.49L241.805 706.149H199.183V708.149H240.977L262.662 729.833Z" fill="white"/>
<path d="M199.371 710.907C197.294 710.907 195.611 709.225 195.611 707.149C195.611 705.071 197.294 703.389 199.371 703.389C201.447 703.389 203.13 705.071 203.13 707.149C203.13 709.225 201.447 710.907 199.371 710.907Z" fill="white"/>
<path d="M209.361 765.462L210.775 764.047L184.857 738.128H158.443V740.128H184.029L209.361 765.462Z" fill="white"/>
<path d="M158.631 742.888C156.554 742.888 154.87 741.203 154.87 739.128C154.87 737.052 156.554 735.367 158.631 735.367C160.706 735.367 162.39 737.052 162.39 739.128C162.39 741.203 160.706 742.888 158.631 742.888Z" fill="white"/>
<path d="M451.031 788.491L465.443 774.081H567.83V772.081H464.615L449.618 787.078L451.031 788.491Z" fill="white"/>
<path d="M453.115 790.31C451.646 791.778 449.266 791.778 447.797 790.31C446.33 788.842 446.33 786.461 447.797 784.993C449.266 783.525 451.646 783.525 453.115 784.993C454.582 786.461 454.582 788.842 453.115 790.31Z" fill="white"/>
<path d="M338.491 785.469H418.13L455.222 748.377L453.807 746.964L417.302 783.469H338.491V785.469Z" fill="white"/>
<path d="M338.678 788.229C336.603 788.229 334.919 786.545 334.919 784.469C334.919 782.393 336.603 780.709 338.678 780.709C340.755 780.709 342.439 782.393 342.439 784.469C342.439 786.545 340.755 788.229 338.678 788.229Z" fill="white"/>
<path d="M313.075 547.19L314.49 545.777L283.787 515.075H154.699L131.525 491.899L130.111 493.314L153.871 517.075H282.958L313.075 547.19Z" fill="white"/>
<path d="M128.293 495.399C126.823 493.93 126.823 491.55 128.293 490.081C129.759 488.613 132.141 488.613 133.609 490.081C135.078 491.55 135.078 493.93 133.609 495.398C132.141 496.866 129.759 496.866 128.293 495.399Z" fill="white"/>
<path d="M339.194 620.613C340.103 620.571 341.006 620.529 341.897 620.486L334.979 613.57H260.689L259.338 614.922L257.986 613.57H133.253C132.221 613.95 131.685 614.339 131.685 614.737C131.685 615.018 131.954 615.297 132.479 615.57H334.151L339.194 620.613Z" fill="white"/>
<path d="M259.338 614.922L260.689 613.57L260.751 613.507L254.541 607.297C253.598 607.299 252.659 607.302 251.721 607.305L257.986 613.57L259.338 614.922Z" fill="white"/>
<path d="M365.809 618.982C368.409 618.766 370.814 618.541 373.011 618.307C373.167 617.465 373.034 616.577 372.609 615.807C370.441 615.619 368.379 615.418 366.435 615.203C365.533 616.275 365.325 617.733 365.809 618.982Z" fill="white"/>
<path d="M621.703 637.124C622.603 637.066 623.49 637.009 624.359 636.952L618.452 631.044H573.525L574.152 631.67L572.779 633.044H617.623L621.703 637.124ZM467.866 633.044H572.697L570.697 631.044H529.311L529.514 631.246L528.1 632.66L526.483 631.044H468.694L463.262 625.612C462.345 625.642 461.431 625.673 460.527 625.705L467.866 633.044Z" fill="white"/>
<path d="M528.1 632.66L529.514 631.246L529.311 631.044L522.895 624.628C521.95 624.629 521.014 624.632 520.074 624.634L526.483 631.044L528.1 632.66Z" fill="white"/>
<path d="M416.667 635.863L421.334 631.197C421.047 631.034 420.777 630.83 420.531 630.585C420.287 630.339 420.083 630.07 419.921 629.783L414.102 635.601C414.929 635.69 415.781 635.777 416.667 635.863Z" fill="white"/>
<path d="M423.191 631.686C424.153 631.686 425.115 631.318 425.849 630.585C426.713 629.721 427.067 628.542 426.915 627.418C424.258 627.61 421.755 627.811 419.433 628.018C419.447 628.629 419.61 629.237 419.921 629.783C420.083 630.07 420.287 630.339 420.531 630.585C420.777 630.83 421.047 631.034 421.334 631.197C421.909 631.522 422.55 631.686 423.191 631.686Z" fill="white"/>
<path d="M450.913 616.091C451.802 616.023 452.675 615.954 453.533 615.883L440.765 603.115C439.787 603.066 438.799 603.021 437.798 602.977L443.758 608.935H446.173V610.935H445.758L450.913 616.091Z" fill="white"/>
<path d="M376.755 611.594L377.413 610.936H446.173V608.936H443.758H376.585L374.223 611.297C375.105 611.396 375.947 611.494 376.755 611.594Z" fill="white"/>
<path d="M545.004 677.377C545.92 677.34 546.821 677.302 547.719 677.264L540.721 670.265H403.277C400.513 670.922 396.245 671.544 390.702 672.12L390.847 672.265H470.142L471.562 670.845L472.975 672.26L472.97 672.265H539.893L545.004 677.377Z" fill="white"/>
<path d="M466.515 678.722L472.97 672.265L472.975 672.259L471.562 670.845L470.142 672.265L463.695 678.714C464.634 678.717 465.57 678.72 466.515 678.722ZM358.474 674.858L357.959 674.343C357.066 674.383 356.163 674.425 355.251 674.463L355.286 674.499C356.294 674.621 357.358 674.741 358.474 674.858Z" fill="white"/>
<path d="M358.286 748.571H411.898L413.431 747.036L414.846 748.451L414.726 748.571H452.201L453.807 746.963L455.222 748.376L455.029 748.571H591.507L592.822 747.255L594.138 748.571H613.213C613.91 748.257 614.269 747.937 614.269 747.611C614.269 747.258 613.844 746.911 613.023 746.57H567.106L567.399 746.863L565.985 748.278L564.278 746.57H358.477C357.655 746.911 357.231 747.258 357.231 747.611C357.231 747.937 357.59 748.257 358.286 748.571Z" fill="white"/>
<path d="M409.681 753.616L414.726 748.571L414.846 748.452L413.431 747.037L411.898 748.571L406.971 753.497C407.863 753.537 408.77 753.577 409.681 753.616Z" fill="white"/>
<path d="M448.851 754.748L455.029 748.572L455.222 748.377L453.807 746.964L452.201 748.572L446.073 754.698C446.995 754.716 447.919 754.731 448.851 754.748Z" fill="white"/>
<path d="M314.37 739.153L302.922 727.705C302.141 727.748 301.373 727.79 300.61 727.833H302.502V729.833H302.222L311.411 739.022C312.387 739.067 313.373 739.11 314.37 739.153Z" fill="white"/>
<path d="M330.945 734.307H477.251L483.546 728.014C482.667 727.961 481.781 727.907 480.875 727.855L476.423 732.307H331.773L326.171 726.706C325.251 726.736 324.343 726.769 323.438 726.8L330.945 734.307Z" fill="white"/>
<path d="M275.47 729.833H302.502V727.833H300.61C290.431 728.412 281.898 729.086 275.47 729.833Z" fill="white"/>
<path d="M320.203 804.453H538.454L544.226 798.681C543.354 798.623 542.469 798.567 541.567 798.511L537.626 802.453H320.939C319.921 802.83 319.393 803.218 319.393 803.611C319.393 803.897 319.667 804.177 320.203 804.453Z" fill="white"/>
<path d="M326.243 675.407C327.167 675.386 328.091 675.365 329.005 675.341L321.074 667.411H193.265C193.353 667.73 193.399 668.065 193.399 668.41C193.399 668.757 193.351 669.093 193.265 669.411H320.246L326.243 675.407Z" fill="white"/>
<path d="M189.639 672.17C191.369 672.17 192.826 671.002 193.265 669.411C193.351 669.093 193.399 668.757 193.399 668.41C193.399 668.065 193.353 667.73 193.265 667.411C192.826 665.819 191.369 664.65 189.639 664.65C187.563 664.65 185.879 666.334 185.879 668.41C185.879 670.487 187.563 672.17 189.639 672.17Z" fill="white"/>
<path d="M384.37 665.788C385.255 665.741 386.153 665.694 387.059 665.649L385.811 664.401C384.814 664.313 383.783 664.226 382.723 664.142L384.37 665.788Z" fill="white"/>
<path d="M349.642 668.854C350.401 668.727 351.219 668.601 352.091 668.477L345.765 662.149C344.799 662.114 343.818 662.081 342.835 662.047L349.642 668.854Z" fill="white"/>
<path d="M536.526 718.819C537.449 718.797 538.375 718.776 539.287 718.752L531.449 710.914H364.575L363.721 710.058C362.839 710.258 362.097 710.459 361.498 710.665L363.747 712.914H495.817L497.503 711.227L498.917 712.641L498.644 712.914H530.621L536.526 718.819Z" fill="white"/>
<path d="M489.367 719.364C490.314 719.362 491.257 719.361 492.199 719.36L498.644 712.914L498.917 712.641L497.503 711.228L495.817 712.914L489.367 719.364Z" fill="white"/>
<path d="M254.102 771.507C255.031 771.486 255.947 771.465 256.866 771.442L249.033 763.61H210.337L210.775 764.047L209.361 765.462L207.509 763.61H117.658L111.729 769.54C112.601 769.597 113.489 769.652 114.39 769.706L118.486 765.61H248.205L254.102 771.507Z" fill="white"/>
<path d="M277.119 769.698H300.55C310.142 769.112 318.113 768.438 324.043 767.698H277.947L268.255 758.006C267.293 757.975 266.315 757.946 265.338 757.917L277.119 769.698Z" fill="white"/>
<path d="M209.361 765.462L210.775 764.047L210.337 763.61L203.85 757.122C202.907 757.123 201.966 757.126 201.029 757.129L207.509 763.61L209.361 765.462Z" fill="white"/>
<path d="M204.781 550.551L207.687 547.645H345.502L353.691 539.454C352.769 539.437 351.847 539.419 350.915 539.402L344.674 545.645H314.358L314.49 545.777L313.075 547.19L311.53 545.645H206.859L202.194 550.309C203.029 550.39 203.895 550.471 204.781 550.551Z" fill="white"/>
<path d="M370.194 547.155H406.155L411.561 541.75C410.693 541.689 409.81 541.63 408.911 541.571L405.327 545.155H370.194C370.282 545.474 370.329 545.809 370.329 546.155C370.329 546.502 370.282 546.837 370.194 547.155Z" fill="white"/>
<path d="M366.569 549.916C368.298 549.916 369.755 548.746 370.194 547.156C370.282 546.837 370.329 546.502 370.329 546.156C370.329 545.809 370.282 545.474 370.194 545.156C369.755 543.565 368.298 542.396 366.569 542.396C364.493 542.396 362.809 544.08 362.809 546.156C362.809 548.232 364.493 549.916 366.569 549.916Z" fill="white"/>
<path d="M313.075 547.19L314.49 545.777L314.358 545.645L307.789 539.075C306.845 539.078 305.907 539.081 304.969 539.083L311.53 545.645L313.075 547.19Z" fill="white"/>
<path d="M288.703 522.819C289.625 522.791 290.538 522.762 291.445 522.733L283.787 515.075H154.699L149.973 510.347C149.062 510.389 148.159 510.43 147.27 510.473L153.871 517.075H282.958L288.703 522.819Z" fill="white"/>
<path d="M437.107 571.262C438.025 571.23 438.934 571.197 439.837 571.164L432.503 563.83H243.238C242.382 564.177 241.939 564.532 241.939 564.893C241.939 565.21 242.281 565.524 242.946 565.83H403.287L404.817 564.301L406.231 565.714L406.115 565.83H431.675L437.107 571.262Z" fill="white"/>
<path d="M396.935 572.182C397.893 572.17 398.85 572.158 399.799 572.145L406.115 565.83L406.231 565.714L404.817 564.301L403.287 565.83L396.935 572.182Z" fill="white"/>
<path d="M452.891 560.482H474.027C467.551 559.973 459.985 559.511 451.522 559.113L452.891 560.482Z" fill="white"/>
</g>
</svg>
