<svg width="191" height="105" viewBox="0 0 191 105" fill="none" xmlns="http://www.w3.org/2000/svg">
<mask id="mask0" mask-type="alpha" maskUnits="userSpaceOnUse" x="0" y="0" width="191" height="105">
<path d="M0 8C0 3.58172 3.58172 0 8 0H182.217C186.636 0 190.217 3.58172 190.217 8V105H0V8Z" fill="#FF71AC"/>
</mask>
<g mask="url(#mask0)">
<g opacity="0.3">
<path d="M73.0977 32.5659C73.0977 31.8522 73.4779 31.1926 74.0956 30.8351L102.558 14.357C103.178 13.9981 103.942 13.9981 104.562 14.357L133.024 30.8351C133.642 31.1926 134.022 31.8522 134.022 32.5659V65.5316C134.022 66.2453 133.642 66.9049 133.024 67.2625L104.562 83.7405C103.942 84.0994 103.178 84.0994 102.558 83.7405L74.0956 67.2625C73.478 66.9049 73.0977 66.2453 73.0977 65.5316V32.5659Z" fill="#5281EE"/>
<path d="M12.1738 48.5971C12.1738 47.8843 12.5532 47.2254 13.1696 46.8675L23.5949 40.8141C24.2159 40.4535 24.9825 40.4535 25.6034 40.8141L36.0288 46.8675C36.6452 47.2254 37.0245 47.8843 37.0245 48.5971V60.7237C37.0245 61.4364 36.6452 62.0953 36.0288 62.4532L25.6034 68.5067C24.9825 68.8672 24.2159 68.8672 23.5949 68.5067L13.1696 62.4532C12.5532 62.0953 12.1738 61.4364 12.1738 60.7237V48.5971Z" fill="#5281EE"/>
<path d="M137.235 46.3988C137.235 45.6861 137.614 45.0272 138.231 44.6693L148.656 38.6158C149.277 38.2553 150.043 38.2553 150.664 38.6158L161.09 44.6693C161.706 45.0272 162.086 45.6861 162.086 46.3988V58.5254C162.086 59.2382 161.706 59.8971 161.09 60.255L150.664 66.3084C150.043 66.669 149.277 66.669 148.656 66.3084L138.231 60.255C137.614 59.8971 137.235 59.2382 137.235 58.5254V46.3988Z" fill="#5281EE"/>
<path d="M39.4292 50.2017C39.4292 49.488 39.8095 48.8284 40.4271 48.4708L68.8892 31.9927C69.5091 31.6339 70.2735 31.6339 70.8934 31.9927L99.3555 48.4708C99.9731 48.8284 100.353 49.488 100.353 50.2017V83.1674C100.353 83.881 99.9731 84.5406 99.3555 84.8982L70.8934 101.376C70.2735 101.735 69.5091 101.735 68.8892 101.376L40.4271 84.8982C39.8095 84.5406 39.4292 83.881 39.4292 83.1674V50.2017Z" stroke="#82A4F3"/>
<path d="M108.895 68.9046C108.895 68.1912 109.274 67.5319 109.892 67.1742L125.528 58.1124C126.148 57.753 126.913 57.753 127.533 58.1124L143.169 67.1742C143.786 67.5319 144.166 68.1912 144.166 68.9046V87.0412C144.166 87.7546 143.786 88.414 143.169 88.7717L127.533 97.8334C126.913 98.1929 126.148 98.1929 125.528 97.8334L109.892 88.7717C109.274 88.414 108.895 87.7546 108.895 87.0412V68.9046Z" stroke="#82A4F3"/>
<path d="M25.9907 14.3097C25.9907 13.6201 26.346 12.9792 26.9307 12.6137L38.748 5.22793C39.3965 4.82259 40.2194 4.82259 40.868 5.22793L52.6852 12.6137C53.27 12.9792 53.6252 13.6201 53.6252 14.3097V29.3643C53.6252 30.0539 53.27 30.6948 52.6852 31.0603L40.868 38.4461C40.2194 38.8514 39.3965 38.8514 38.748 38.4461L26.9307 31.0603C26.346 30.6948 25.9907 30.0539 25.9907 29.3643V14.3097Z" stroke="#82A4F3"/>
<path d="M153.088 71.6668C153.088 70.9503 153.472 70.2884 154.093 69.9319L165.721 63.2631C166.337 62.9096 167.095 62.9096 167.711 63.2631L179.339 69.9319C179.96 70.2884 180.344 70.9503 180.344 71.6668V84.9817C180.344 85.6982 179.96 86.3601 179.339 86.7166L167.711 93.3854C167.095 93.7389 166.337 93.7389 165.721 93.3854L154.093 86.7166C153.472 86.3601 153.088 85.6982 153.088 84.9817V71.6668Z" stroke="#82A4F3"/>
</g>
</g>
</svg>
